<svg width="522" height="540" viewBox="0 0 522 540" fill="none" xmlns="http://www.w3.org/2000/svg">
<path d="M412.103 71.5654L405.443 87.0966C402.799 88.1243 401.297 88.6892 398.651 89.7169L385.608 81.8152C382.264 84.71 381.659 85.2136 378.313 88.1039L380.597 105.305C378.966 108.002 378.037 109.497 376.404 112.195L361.943 114.913C360.667 119.572 360.44 120.425 359.148 125.103L369.515 137.411V145.914L359.148 158.221C360.44 162.899 360.667 163.734 361.943 168.412L376.404 171.13C378.037 173.827 378.966 175.322 380.597 178.02L378.313 195.218C381.659 198.093 382.264 198.617 385.608 201.509L398.651 193.61C401.297 194.638 402.799 195.2 405.443 196.23L412.103 211.739H421.111L427.757 196.23C430.402 195.2 431.903 194.638 434.547 193.61L447.588 201.509C450.934 198.617 451.539 198.093 454.887 195.218L452.6 178.02C454.233 175.322 455.164 173.827 456.797 171.13L471.259 168.412C472.532 163.734 472.76 162.899 474.05 158.221L463.684 145.914V137.411L474.05 125.103C472.76 120.425 472.532 119.572 471.259 114.913L456.797 112.195C455.164 109.497 454.233 108.002 452.6 105.305L454.887 88.1039C451.539 85.2136 450.934 84.71 447.588 81.8152L434.547 89.7169C431.903 88.6892 430.402 88.1243 427.757 87.0966L421.111 71.5654H412.103ZM383.119 141.662C383.119 119.686 398.11 101.859 416.609 101.859C435.089 101.859 450.08 119.686 450.08 141.662C450.08 163.641 435.089 181.468 416.609 181.468C398.11 181.468 383.119 163.641 383.119 141.662Z" fill="url(#paint0_linear)"/>
<path d="M53.5121 232.966L50.5723 239.822C49.4029 240.276 48.7409 240.523 47.5734 240.977L41.8159 237.49C40.3393 238.765 40.0703 238.989 38.5938 240.267L39.6049 247.86C38.8837 249.051 38.4736 249.711 37.7505 250.9L31.3673 252.102C30.8045 254.158 30.7035 254.534 30.1331 256.599L34.7116 262.034V265.787L30.1331 271.22C30.7035 273.285 30.8045 273.654 31.3673 275.719L37.7505 276.917C38.4736 278.108 38.8837 278.77 39.6049 279.961L38.5938 287.554C40.0703 288.82 40.3393 289.052 41.8159 290.329L47.5734 286.842C48.7409 287.296 49.4029 287.543 50.5723 287.999L53.5121 294.846H57.4878L60.4218 287.999C61.5893 287.543 62.2513 287.296 63.4189 286.842L69.1763 290.329C70.6548 289.052 70.9219 288.82 72.3985 287.554L71.3893 279.961C72.1085 278.77 72.5205 278.108 73.2417 276.917L79.6268 275.719C80.1877 273.654 80.2888 273.285 80.8592 271.22L76.2825 265.787V262.034L80.8592 256.599C80.2888 254.534 80.1877 254.158 79.6268 252.102L73.2417 250.9C72.5205 249.711 72.1085 249.051 71.3893 247.86L72.3985 240.267C70.9219 238.989 70.6548 238.765 69.1763 237.49L63.4189 240.977C62.2513 240.523 61.5893 240.276 60.4218 239.822L57.4878 232.966H53.5121ZM44.8606 263.911C44.8606 256.93 49.6223 251.265 55.4999 251.265C61.37 251.265 66.1316 256.93 66.1316 263.911C66.1316 270.891 61.37 276.554 55.4999 276.554C49.6223 276.554 44.8606 270.891 44.8606 263.911Z" fill="#120E59" fill-opacity="0.5"/>
<path d="M396.593 141.661C396.593 154.795 405.554 165.446 416.607 165.446C427.649 165.446 436.606 154.795 436.606 141.661C436.606 128.531 427.649 117.877 416.607 117.877C405.554 117.877 396.593 128.531 396.593 141.661Z" fill="url(#paint1_linear)"/>
<path d="M493.189 156.504L490.091 163.727C488.86 164.206 488.162 164.469 486.933 164.948L480.867 161.272C479.31 162.618 479.03 162.851 477.473 164.197L478.537 172.196C477.776 173.453 477.343 174.147 476.584 175.402L469.857 176.667C469.266 178.834 469.159 179.229 468.56 181.407L473.381 187.13V191.087L468.56 196.809C469.159 198.986 469.266 199.374 469.857 201.548L476.584 202.814C477.343 204.068 477.776 204.765 478.537 206.017L477.473 214.019C479.03 215.353 479.31 215.598 480.867 216.945L486.933 213.268C488.162 213.749 488.86 214.009 490.091 214.488L493.189 221.7H497.38L500.469 214.488C501.701 214.009 502.397 213.749 503.628 213.268L509.694 216.945C511.251 215.598 511.531 215.353 513.088 214.019L512.025 206.017C512.785 204.765 513.218 204.068 513.977 202.814L520.704 201.548C521.295 199.374 521.402 198.986 522.001 196.809L517.18 191.087V187.13L522.001 181.407C521.402 179.229 521.295 178.834 520.704 176.667L513.977 175.402C513.218 174.147 512.785 173.453 512.025 172.196L513.088 164.197C511.531 162.851 511.251 162.618 509.694 161.272L503.628 164.948C502.397 164.469 501.701 164.206 500.469 163.727L497.38 156.504H493.189ZM479.709 189.109C479.709 178.884 486.681 170.594 495.283 170.594C503.881 170.594 510.854 178.884 510.854 189.109C510.854 199.329 503.881 207.623 495.283 207.623C486.681 207.623 479.709 199.329 479.709 189.109Z" fill="url(#paint2_linear)"/>
<path d="M387.752 431.63C377.431 388.689 373.171 330.241 446.576 302.108C438.548 342.272 448.965 404.631 387.752 431.63Z" fill="#59AE9E"/>
<path d="M379.315 465.703C389.769 401.359 430.966 319.756 454.405 292.255M375.675 371.039C375.675 371.039 382.245 402.471 392.385 414.66C392.385 414.66 416.927 401.763 441.134 401.219L375.675 371.039ZM392.148 330.38C392.148 330.38 391.406 356.456 400.3 392.82C400.3 392.82 426.619 376.708 457.972 369.516L392.148 330.38ZM407.973 310.919C407.973 310.919 405.855 330.983 411.586 366.057C411.586 366.057 438.01 350.219 466.173 343.897L407.973 310.919ZM425.577 303.746C425.577 303.746 423 315.101 424.368 339.82C424.368 339.82 435.436 330.514 462.022 321.119L425.577 303.746Z" stroke="#C1C1C1" stroke-width="1.33333" stroke-miterlimit="10" stroke-linecap="round" stroke-linejoin="round"/>
<g opacity="0.5">
<g opacity="0.5">
<path opacity="0.5" d="M424.948 291.534C421.52 303.628 419.406 316.248 418.674 328.98C418.057 339.686 418.754 351.51 424.912 359.353C429.277 364.911 435.826 367.531 442.219 367.711C448.611 367.887 454.907 365.848 460.918 363.253C463.078 385.835 456.424 410.053 441.7 424.545C426.978 439.037 404.114 441.823 388.452 428.799C378.318 420.371 372.11 406.824 367.307 393.274C360.16 373.105 355.273 351.174 357.364 329.432C360.296 298.954 377.538 271.383 400.61 257.66C403.118 256.168 405.793 254.802 408.597 254.849C411.401 254.899 414.362 256.721 415.251 259.886" fill="#CACACA"/>
</g>
</g>
<path d="M377.069 473.725C383.172 420.965 402.162 354.754 493.635 366.036C468.632 405.27 454.782 479.267 377.069 473.725Z" fill="#64C3B2"/>
<path d="M354.532 503.232C391.958 439.004 469.911 373.517 506.602 356.915M388.839 397.858C388.839 397.858 383.299 435.914 389.434 455.012C389.434 455.012 421.428 454.976 448.062 468.222L388.839 397.858ZM423.256 362.914C423.256 362.914 411.903 390.945 406.903 435.708C406.903 435.708 442.135 433.178 479.253 443.263L423.256 362.914ZM448.392 350.731C448.392 350.731 437.97 371.41 430.04 412.958C430.04 412.958 465.273 410.789 498.565 419.997L448.392 350.731ZM470.502 352.968C470.502 352.968 463.098 363.885 454.596 391.642C454.596 391.642 470.435 387.814 503.244 392.769L470.502 352.968Z" stroke="#FA7269" stroke-width="1.33333" stroke-miterlimit="10" stroke-linecap="round" stroke-linejoin="round"/>
<g opacity="0.5">
<g opacity="0.5">
<path opacity="0.5" d="M490.155 345.801C461.844 353.365 435.394 375.473 424.337 407.377C419.521 421.268 418.362 439.108 427.347 449.674C432.851 456.144 441.103 458.385 448.82 457.702C456.537 457.019 463.904 453.753 471.148 450.52C477.11 447.861 483.071 445.2 489.031 442.541C487.703 449.719 484.098 455.964 480.471 461.917C462.89 490.772 442.166 518.35 415.082 533.6C409.924 536.506 404.443 538.968 398.739 539.145C390.213 539.408 381.993 534.424 375.921 527.3C369.85 520.176 365.697 511.07 362.328 501.753C349.768 467.013 347.261 426.953 356.779 390.872C366.294 354.792 388.065 323.176 416.601 306.492C424.268 302.009 432.633 298.536 441.163 299.051" fill="#FA7269"/>
</g>
</g>
<path d="M151.816 477.243C76.3637 453.569 85.0324 431.455 96.3394 430.654C107.696 429.846 89.588 411.499 79.1528 403.931C56.7047 387.645 66.2299 377.976 77.2374 375.825C91.3564 373.066 62.59 344.445 65.8503 329.499C70.3849 308.714 93.6342 342.877 107.683 348.041C117.387 351.605 116.845 334.202 126.542 338.585C136.241 342.968 131.445 396.794 142.678 395.446C148.523 394.748 147.417 386.826 154.437 389.863C162.169 393.214 162.045 449.4 151.816 477.243Z" fill="#FA7269"/>
<path d="M61.2072 314.156C102.389 363.568 146.08 438.926 156.021 488.382M62.0733 346.217C62.0733 346.217 78.6208 349.965 92.8753 357.225C92.8753 357.225 94.411 339.125 90.897 316.014L62.0733 346.217ZM56.291 373.529C91.4101 377.082 114.135 390.295 114.135 390.295C114.135 390.295 118.944 357.147 116.182 324.576L56.291 373.529ZM63.0176 401.559C100.935 401.452 131.325 421.18 131.325 421.18C131.325 421.18 138.174 396.99 138.151 360.022L63.0176 401.559ZM69.4848 433.687C113.91 433.168 145.435 452.696 145.435 452.696C155.065 411.627 150.654 371.832 150.654 371.832L69.4848 433.687Z" stroke="#D7D7D7" stroke-width="1.33333" stroke-miterlimit="10" stroke-linecap="round" stroke-linejoin="round"/>
<g opacity="0.5">
<g opacity="0.5">
<path opacity="0.5" d="M101.32 312.611C104.674 325.304 108.062 338.249 108.001 351.552C107.942 364.858 103.873 378.826 94.8682 386.723C86.3637 394.185 74.6827 395.079 64.5508 391.508C54.4152 387.942 45.5958 380.419 37.6215 372.168C35.3475 405.515 43.2207 438.973 55.7296 468.942C60.6305 480.687 66.3861 492.214 74.6312 500.912C91.3676 518.566 115.699 521.867 137.973 519.39C154.515 517.55 171.043 512.895 185.576 503.321C200.107 493.75 212.553 478.944 218.671 460.58C224.644 442.644 224.309 422.573 221.716 403.53C217.387 371.707 206.969 341.137 191.834 314.392C182.016 297.041 169.46 280.634 152.844 273.778C136.243 266.925 117.587 270.623 101.623 279.359" fill="#CACACA"/>
</g>
</g>
<g filter="url(#filter0_d)">
<path d="M445.211 509.149H55.932C50.5542 509.149 46.1931 503.963 46.1931 497.568V494.314C46.1931 487.919 50.5542 482.733 55.932 482.733H445.211C450.589 482.733 454.95 487.919 454.95 494.314V497.568C454.95 503.963 450.589 509.149 445.211 509.149Z" fill="url(#paint3_linear)"/>
</g>
<path d="M400.26 490.767H135.576C129.616 490.767 124.786 485.023 124.786 477.938V12.8315C124.786 5.74426 129.616 4.63995e-05 135.576 4.63995e-05H400.26C406.219 4.63995e-05 411.05 5.74426 411.05 12.8315V477.938C411.05 485.023 406.219 490.767 400.26 490.767Z" fill="#164154"/>
<path d="M397.775 481.95H153.311C149.606 481.95 146.601 478.377 146.601 473.969V16.7945C146.601 12.3865 149.606 8.81568 153.311 8.81568H397.775C401.479 8.81568 404.484 12.3865 404.484 16.7945V473.969C404.484 478.377 401.479 481.95 397.775 481.95Z" fill="#4EA1C7"/>
<path d="M377 442C377 453.046 368.046 462 357 462H192C180.954 462 172 453.046 172 442V49C172 37.9543 180.954 29 192 29H357C368.046 29 377 37.9543 377 49V442Z" fill="#DDE8FD"/>
<path d="M290.728 17.7842C289.793 17.7842 289.036 18.6848 289.036 19.7965C289.036 20.9059 289.793 21.8065 290.728 21.8065C291.661 21.8065 292.418 20.9059 292.418 19.7965C292.418 18.6848 291.661 17.7842 290.728 17.7842ZM284.745 21.8065H260.046C259.285 21.8065 258.665 21.0715 258.665 20.1663V19.4267C258.665 18.5192 259.285 17.7842 260.046 17.7842H284.745C285.508 17.7842 286.126 18.5192 286.126 19.4267V20.1663C286.126 21.0715 285.508 21.8065 284.745 21.8065" fill="#164154"/>
<path d="M328.172 201.417H222.912V76.2417H328.172V201.417Z" fill="#BBE2F3"/>
<path d="M342.543 128.782L347.423 138.83L342.543 148.88H346.395L351.267 138.83L346.395 128.782H342.543Z" fill="url(#paint4_linear)"/>
<path d="M204.691 128.782L199.818 138.83L204.691 148.88H208.542L203.662 138.83L208.542 128.782H204.691Z" fill="url(#paint5_linear)"/>
<path d="M222.914 156.563V201.418H317.731L251.463 122.612L222.914 156.563Z" fill="url(#paint6_linear)"/>
<g filter="url(#filter1_d)">
<path d="M316.596 111.471C316.596 121.031 310.079 128.783 302.038 128.783C293.999 128.783 287.48 121.031 287.48 111.471C287.48 101.91 293.999 94.1585 302.038 94.1585C310.079 94.1585 316.596 101.91 316.596 111.471Z" fill="#F8EC87"/>
</g>
<path d="M254.982 201.418H328.173V182.28L299.624 148.33L254.982 201.418Z" fill="url(#paint7_linear)"/>
<path d="M344.651 320.18C344.651 321.843 343.303 323.191 341.64 323.191H216.67C215.006 323.191 213.658 321.843 213.658 320.18V320.18C213.658 318.516 215.006 317.168 216.67 317.168H341.64C343.303 317.168 344.651 318.516 344.651 320.18V320.18Z" fill="#120E59"/>
<path d="M356.459 346.368C356.459 348.032 355.111 349.38 353.448 349.38H195.377C193.714 349.38 192.365 348.032 192.365 346.368V346.368C192.365 344.705 193.714 343.357 195.377 343.357H353.448C355.111 343.357 356.459 344.705 356.459 346.368V346.368Z" fill="#120E59"/>
<path d="M335.026 372.557C335.026 374.22 333.677 375.569 332.014 375.569H195.378C193.715 375.569 192.367 374.22 192.367 372.557V372.557C192.367 370.894 193.715 369.545 195.378 369.545H332.014C333.677 369.545 335.026 370.894 335.026 372.557V372.557Z" fill="#120E59"/>
<path d="M321.746 398.747C321.746 400.411 320.398 401.759 318.734 401.759H195.378C193.715 401.759 192.367 400.411 192.367 398.747V398.747C192.367 397.084 193.715 395.736 195.378 395.736H318.734C320.398 395.736 321.746 397.084 321.746 398.747V398.747Z" fill="#120E59"/>
<path d="M334.705 424.936C334.705 426.599 333.357 427.948 331.694 427.948H195.378C193.715 427.948 192.367 426.599 192.367 424.936V424.936C192.367 423.273 193.715 421.924 195.378 421.924H331.694C333.357 421.924 334.705 423.273 334.705 424.936V424.936Z" fill="#120E59"/>
<path d="M356.459 424.936C356.459 426.599 355.11 427.948 353.447 427.948H347.663C346 427.948 344.652 426.599 344.652 424.936V424.936C344.652 423.273 346 421.924 347.663 421.924H353.447C355.11 421.924 356.459 423.273 356.459 424.936V424.936Z" fill="#120E59"/>
<path d="M465.247 442.844H367.955V381.788H465.247V442.844Z" fill="#BF5478"/>
<path d="M367.954 381.788L416.6 412.317L367.954 442.844V381.788Z" fill="#FB729F"/>
<path d="M465.245 381.788L416.601 412.317L465.245 442.844V381.788Z" fill="#FB729F"/>
<path d="M367.954 442.844L416.6 404.611L465.245 442.844H367.954Z" fill="#FF96B8"/>
<path d="M367.954 381.788L416.6 343.954L465.245 381.788H367.954Z" fill="#FF96B8"/>
<path d="M164.439 87.2139V136.181C164.439 144.824 158.548 151.827 151.284 151.827H107.181V171.823L90.3685 151.827H13.1556C5.89102 151.827 0 144.824 0 136.181V87.2139C0 78.5726 5.89102 71.567 13.1556 71.567H151.284C158.548 71.567 164.439 78.5726 164.439 87.2139Z" fill="#120E59"/>
<path d="M138.488 127.479H130.39V131.581H138.488V127.479ZM123.568 127.479H25.9485V131.581H123.568V127.479ZM114.682 109.647H25.9485V113.749H114.682V109.647ZM123.79 95.9176H41.6681V91.8158H123.79V95.9176Z" fill="white"/>
<path d="M447.213 263.91C447.213 268.992 443.748 273.112 439.473 273.112C435.2 273.112 431.736 268.992 431.736 263.91C431.736 258.828 435.2 254.706 439.473 254.706C443.748 254.706 447.213 258.828 447.213 263.91Z" fill="#FB729F"/>
<path d="M462.738 322.731C462.738 324.544 463.976 326.016 465.5 326.016C467.026 326.016 468.264 324.544 468.264 322.731C468.264 320.914 467.026 319.442 465.5 319.442C463.976 319.442 462.738 320.914 462.738 322.731Z" fill="url(#paint8_linear)"/>
<path d="M44.4325 375.569C44.4325 377.384 43.1963 378.854 41.6701 378.854C40.1439 378.854 38.9077 377.384 38.9077 375.569C38.9077 373.754 40.1439 372.284 41.6701 372.284C43.1963 372.284 44.4325 373.754 44.4325 375.569Z" fill="#FFA60B"/>
<path d="M55.4976 188.207C55.4976 194.535 59.8071 199.664 65.1277 199.664C70.4464 199.664 74.7597 194.535 74.7597 188.207C74.7597 181.882 70.4464 176.755 65.1277 176.755C59.8071 176.755 55.4976 181.882 55.4976 188.207Z" fill="#7F6FE4"/>
<path d="M81.4415 218.769C81.4415 219.899 80.6708 220.813 79.7208 220.813C78.7707 220.813 78 219.899 78 218.769C78 217.637 78.7707 216.722 79.7208 216.722C80.6708 216.722 81.4415 217.637 81.4415 218.769Z" fill="#FFA60B"/>
<path d="M472.762 67.2446C472.762 69.1457 471.466 70.6862 469.868 70.6862C468.271 70.6862 466.976 69.1457 466.976 67.2446C466.976 65.3457 468.271 63.8031 469.868 63.8031C471.466 63.8031 472.762 65.3457 472.762 67.2446Z" fill="#FB729F"/>
<path d="M425.182 26.8952C425.182 31.9248 428.612 36.0016 432.842 36.0016C437.073 36.0016 440.503 31.9248 440.503 26.8952C440.503 21.8633 437.073 17.7843 432.842 17.7843C428.612 17.7843 425.182 21.8633 425.182 26.8952Z" fill="url(#paint9_linear)"/>
<path d="M115.953 34.0622C115.953 40.8296 111.338 46.3152 105.649 46.3152C99.9563 46.3152 95.3416 40.8296 95.3416 34.0622C95.3416 27.2948 99.9563 21.8092 105.649 21.8092C111.338 21.8092 115.953 27.2948 115.953 34.0622Z" fill="#7F6FE4"/>
<path d="M83.6354 56.1519C83.6354 58.0032 82.3744 59.505 80.8158 59.505C79.261 59.505 78 58.0032 78 56.1519C78 54.3007 79.261 52.7989 80.8158 52.7989C82.3744 52.7989 83.6354 54.3007 83.6354 56.1519Z" fill="#FB729F"/>
<path d="M128.356 295.353C124.476 297.23 130.037 303.65 132.273 302.779C134.509 301.908 131.855 292.819 129.823 287.018C119.377 257.188 117.675 243.506 112.599 240.016C110.193 238.365 107.654 237.271 103.543 240.951C99.4316 244.629 96.7245 253.011 100.796 260.781C104.867 268.552 120.733 311.45 128.036 307.479" fill="#065283"/>
<path d="M158.161 292.929C161.74 293.639 165.576 291.926 168.031 290.912C170.487 289.898 172.667 286.982 172.419 286.481C172.173 285.98 170.128 286.883 168.06 287.157C166.358 287.386 165.311 291.184 162.823 290.733" fill="#FFB9A4"/>
<path d="M157.224 292.95C162.14 292.698 166.627 290.656 168.814 288.959C171.002 287.26 177.891 283.179 178.169 281.947C178.446 280.713 176.788 280.681 174.541 280.792C172.293 280.901 171.412 281.539 168.676 281.657C165.941 281.777 163.676 285.259 155.345 287.728" fill="#FFB9A4"/>
<path d="M124.294 305.978C125.662 311.638 152.278 299.844 156.908 297.083C161.536 294.32 162.824 294.036 161.723 289.528C160.622 285.023 158.339 284.891 155.653 286.037C152.969 287.182 124.87 291.874 122.128 295.64" fill="#065283"/>
<path d="M79.472 495.368C79.1877 496.938 79.0141 497.684 80.6987 498.258C82.3813 498.837 86.6774 499.663 92.2747 500.491C97.9349 501.326 100.573 501.398 103.278 501.314C105.987 501.233 107.62 501.646 107.14 498.76C106.934 497.523 103.002 497.351 103.002 497.351L98.4213 497.435" fill="#FEFEFE"/>
<path d="M83.4917 480.26L82.2383 487.531C82.2383 487.531 81.7385 493.162 85.9946 493.364C90.2507 493.568 91.9161 488.904 91.9161 488.904L94.8922 474.938L83.4917 480.26Z" fill="#FFB9A4"/>
<path d="M82.2378 487.533C80.3988 488.515 78.9775 494.792 79.6032 495.949C80.2271 497.106 85.5057 498.345 92.1007 499.334C98.6976 500.326 106.265 500.736 107.029 499.665C107.794 498.592 105.548 494.883 101.498 492.646C97.6102 490.5 94.6532 489.078 91.9156 488.903C88.7622 490.382 84.2829 490.264 82.2378 487.533Z" fill="#193756"/>
<path d="M114.948 492.6C114.838 494.199 114.75 494.964 116.482 495.277C118.214 495.585 122.564 495.737 128.205 495.687C133.907 495.642 136.53 495.302 139.207 494.8C141.881 494.297 143.545 494.453 142.751 491.667C142.412 490.474 138.497 490.914 138.497 490.914L133.963 491.706" fill="#FEFEFE"/>
<path d="M117.477 473.678L116.833 484.398C116.833 484.398 116.543 492.585 122.189 491.71C127.836 490.834 126.579 484.255 126.579 484.255L126.261 471.673L117.477 473.678Z" fill="#FFB9A4"/>
<path d="M116.833 484.397C115.12 485.658 114.398 492.101 115.144 493.151C115.89 494.199 121.259 494.61 127.907 494.567C134.555 494.528 142.104 493.762 142.743 492.577C143.382 491.398 140.75 488.067 136.49 486.479C132.398 484.955 129.311 484.002 126.577 484.256C123.615 486.209 119.16 486.79 116.833 484.397Z" fill="#193756"/>
<path d="M95.5232 314.412C95.7426 328.439 98.9475 345.774 102.063 367.33C103.431 376.793 112.094 410.668 114.066 420.662C116.039 430.658 120.716 413.668 116.8 412.365C112.885 411.063 110.161 426.785 112.408 439.662C114.656 452.541 113.351 479.204 114.795 481.68C116.237 484.159 129.32 482.276 129.568 479.164C129.816 476.053 130.316 426.002 128.281 411.873C126.245 397.744 131.169 341.767 124.509 316.887" fill="#0C2037"/>
<path d="M93.4731 309.633C93.8528 321.854 100.028 344.972 97.5518 366.646C96.4644 376.159 96.1649 411.563 95.522 421.802C94.8772 432.04 103.634 417.51 100.228 414.867C96.8212 412.226 90.251 426.244 89.1407 439.332C88.0285 452.417 79.9951 479.943 80.7449 482.824C81.4984 485.703 95.3827 487.212 96.4053 484.333C97.4278 481.452 109.672 432.701 111.303 418.499C112.93 404.299 133.203 340.884 120.151 311.162" fill="#193756"/>
<path d="M114.471 247.732C111.156 248.723 101.715 244.644 101.715 244.644C101.715 244.644 103.489 238.296 104.292 227.604C104.441 225.592 104.78 224.156 105.196 223.208C107.01 219.065 110.669 223.126 110.669 223.126L114.502 227.511C114.384 229.648 114.491 231.872 114.721 234.004C115.383 240.871 116.997 246.997 114.471 247.732Z" fill="#FFB9A4"/>
<path d="M114.722 234.006C110.624 232.114 107.177 228.289 105.309 223.588L105.197 223.209C107.011 219.067 110.67 223.128 110.67 223.128L114.502 227.513C114.384 229.65 114.491 231.873 114.722 234.006Z" fill="#F4A590"/>
<path d="M111.831 189.14C120.095 189.92 121.012 201.064 121.371 206.345C121.728 211.627 125.833 213.65 123.74 215.297C121.648 216.949 122.069 216.668 120.642 221.634C119.215 226.604 118.263 231.802 110.678 229.985C100.823 227.628 96.0957 224.533 98.4823 206.844C100.428 192.42 106.739 188.659 111.831 189.14Z" fill="#FFB9A4"/>
<path d="M125.516 186.47C123.69 189.24 117.278 185.456 113.272 185.596C109.266 185.737 102.043 187.318 98.0523 195.211C93.2067 204.789 95.2175 222.507 101.255 225.72C101.606 222.01 106.196 221.634 107.616 219.068C108.755 217.01 107.864 212.418 107.702 210.032C107.522 207.398 109.71 204.201 111.719 206.318C113.173 207.852 112.515 212.831 112.051 214.335L114.255 214.54C115.414 207.809 118.026 199.762 122.17 198.605C128.576 196.812 127.624 189.634 125.516 186.47Z" fill="#00325D"/>
<path d="M103.449 231.838C100.895 231.793 94.5993 239.381 92.932 251.823C91.753 260.63 94.5516 281.469 94.2884 290.506C94.0289 299.542 91.3753 336.527 92.3482 338.179C93.3193 339.833 105.328 340.72 111.301 341.217C117.273 341.711 129.806 338.687 129.806 334.279C129.806 322.745 127.761 285.013 127.65 268.479C127.61 262.749 125.098 250.666 122.465 243.565C119.833 236.464 114.697 235.048 113.531 235.071C108.089 235.18 106.364 231.332 103.449 231.838Z" fill="#75ACE6"/>
<g opacity="0.199997">
<g opacity="0.199997">
<g opacity="0.199997">
<g opacity="0.199997">
<g opacity="0.199997">
<path opacity="0.199997" d="M102.539 246.468C97.0262 261.194 99.1189 278.125 100.428 294.169C101.483 307.1 101.956 320.1 101.845 333.092C101.807 337.652 101.683 342.301 100.397 346.595C109.258 351.825 119.951 352.476 129.217 348.356C129.202 341.543 125.457 335.681 122.389 329.928C117.549 320.862 114.041 310.796 112.067 300.319C110.468 291.835 109.873 283.137 109.283 274.473C108.658 265.264 108.03 256.051 107.4 246.838C105.819 246.813 104.235 246.786 102.654 246.756L102.539 246.468Z" fill="url(#paint10_linear)"/>
</g>
</g>
</g>
</g>
</g>
<defs>
<filter id="filter0_d" x="42.1931" y="482.733" width="416.757" height="34.4162" filterUnits="userSpaceOnUse" color-interpolation-filters="sRGB">
<feFlood flood-opacity="0" result="BackgroundImageFix"/>
<feColorMatrix in="SourceAlpha" type="matrix" values="0 0 0 0 0 0 0 0 0 0 0 0 0 0 0 0 0 0 127 0"/>
<feOffset dy="4"/>
<feGaussianBlur stdDeviation="2"/>
<feColorMatrix type="matrix" values="0 0 0 0 0 0 0 0 0 0 0 0 0 0 0 0 0 0 0.25 0"/>
<feBlend mode="normal" in2="BackgroundImageFix" result="effect1_dropShadow"/>
<feBlend mode="normal" in="SourceGraphic" in2="effect1_dropShadow" result="shape"/>
</filter>
<filter id="filter1_d" x="283.48" y="94.1584" width="37.1155" height="42.6242" filterUnits="userSpaceOnUse" color-interpolation-filters="sRGB">
<feFlood flood-opacity="0" result="BackgroundImageFix"/>
<feColorMatrix in="SourceAlpha" type="matrix" values="0 0 0 0 0 0 0 0 0 0 0 0 0 0 0 0 0 0 127 0"/>
<feOffset dy="4"/>
<feGaussianBlur stdDeviation="2"/>
<feColorMatrix type="matrix" values="0 0 0 0 0 0 0 0 0 0 0 0 0 0 0 0 0 0 0.25 0"/>
<feBlend mode="normal" in2="BackgroundImageFix" result="effect1_dropShadow"/>
<feBlend mode="normal" in="SourceGraphic" in2="effect1_dropShadow" result="shape"/>
</filter>
<linearGradient id="paint0_linear" x1="416.6" y1="982.831" x2="416.6" y2="-645.915" gradientUnits="userSpaceOnUse">
<stop stop-color="#120E59"/>
<stop offset="0.997059" stop-color="#F5F5F5"/>
<stop offset="1" stop-color="#F5F5F5"/>
</linearGradient>
<linearGradient id="paint1_linear" x1="416.6" y1="427.119" x2="416.6" y2="-125.602" gradientUnits="userSpaceOnUse">
<stop stop-color="#ACBECC"/>
<stop offset="0.997059" stop-color="#F5F5F5"/>
<stop offset="1" stop-color="#F5F5F5"/>
</linearGradient>
<linearGradient id="paint2_linear" x1="495.281" y1="580.353" x2="495.281" y2="-177.211" gradientUnits="userSpaceOnUse">
<stop stop-color="#120E59"/>
<stop offset="0.997059" stop-color="#F5F5F5"/>
<stop offset="1" stop-color="#F5F5F5"/>
</linearGradient>
<linearGradient id="paint3_linear" x1="250.571" y1="654.468" x2="250.571" y2="347.517" gradientUnits="userSpaceOnUse">
<stop stop-color="#ACBECC"/>
<stop offset="0.997059" stop-color="#F5F5F5"/>
<stop offset="1" stop-color="#F5F5F5"/>
</linearGradient>
<linearGradient id="paint4_linear" x1="346.906" y1="259.437" x2="346.906" y2="25.9097" gradientUnits="userSpaceOnUse">
<stop stop-color="#ACBECC"/>
<stop offset="0.997059" stop-color="#F5F5F5"/>
<stop offset="1" stop-color="#F5F5F5"/>
</linearGradient>
<linearGradient id="paint5_linear" x1="204.18" y1="259.437" x2="204.18" y2="25.9097" gradientUnits="userSpaceOnUse">
<stop stop-color="#ACBECC"/>
<stop offset="0.997059" stop-color="#F5F5F5"/>
<stop offset="1" stop-color="#F5F5F5"/>
</linearGradient>
<linearGradient id="paint6_linear" x1="735.626" y1="794.325" x2="-362.683" y2="-129.245" gradientUnits="userSpaceOnUse">
<stop stop-color="#ACBECC"/>
<stop offset="0.997059" stop-color="#009A48"/>
<stop offset="1" stop-color="#009A48"/>
</linearGradient>
<linearGradient id="paint7_linear" x1="783.789" y1="820.041" x2="-314.521" y2="-103.53" gradientUnits="userSpaceOnUse">
<stop stop-color="#ACBECC"/>
<stop offset="0.997059" stop-color="#00CD63"/>
<stop offset="1" stop-color="#00CD63"/>
</linearGradient>
<linearGradient id="paint8_linear" x1="465.501" y1="362.166" x2="465.501" y2="285.806" gradientUnits="userSpaceOnUse">
<stop stop-color="#ACBECC"/>
<stop offset="0.997059" stop-color="#00CD63"/>
<stop offset="1" stop-color="#00CD63"/>
</linearGradient>
<linearGradient id="paint9_linear" x1="432.843" y1="136.213" x2="432.843" y2="-75.4571" gradientUnits="userSpaceOnUse">
<stop stop-color="#ACBECC"/>
<stop offset="0.997059" stop-color="#00CD63"/>
<stop offset="1" stop-color="#00CD63"/>
</linearGradient>
<linearGradient id="paint10_linear" x1="114.071" y1="351.039" x2="114.071" y2="246.469" gradientUnits="userSpaceOnUse">
<stop stop-color="#ACBECC"/>
<stop offset="0.997059" stop-color="#2D84D3"/>
<stop offset="1" stop-color="#2D84D3"/>
</linearGradient>
</defs>
</svg>
